<svg version="1.1" class="barkly-pets-logo" xmlns="http://www.w3.org/2000/svg" xmlns:xlink="http://www.w3.org/1999/xlink" x="0px" y="0px"
	 viewBox="0 0 1325.584 280.454" enable-background="new 0 0 1325.584 280.454" xml:space="preserve">
<g>
	<g>
		<path fill-rule="evenodd" clip-rule="evenodd" fill="#FFFFFF" d="M112.944,119.659c-11.647,5.809-25.75,17.747-22.128,32.469
			c0.761,3.085,2.304,5.888,4.406,8.263c2.432,2.748,5.297,5.063,8.965,5.834c7.923,1.67,20.413-5.811,27.357-9.274
			c21.35-10.649,47.303-1.969,57.951,19.382c11.712,23.482,2.456,47.081-17.932,57.25c-0.464,0.232-0.932,0.458-1.449,0.701
			c-2.077,1.035-4.232,1.906-6.494,2.613c-6.079,2.066-12.436,3.186-18.856,3.318c-24.134,0.497-41.182-42.505-51.689-63.573
			L38.619,69.029C25.797,46.821-9.246,66.491,2.299,89.628l73.004,144.742c20.664,41.433,72.15,57.786,113.41,37.208
			c41.641-20.769,59.327-71.231,38.074-113.845C206.114,116.285,151.971,100.195,112.944,119.659"/>
		<path fill-rule="evenodd" clip-rule="evenodd" fill="#FFFFFF" d="M86.281,0.719c16.534-4.431,35.323,12.082,41.97,36.882
			c6.643,24.799-1.373,48.495-17.906,52.924c-16.532,4.43-35.322-12.082-41.967-36.881C61.732,28.844,69.748,5.149,86.281,0.719"/>
		<path fill-rule="evenodd" clip-rule="evenodd" fill="#FFFFFF" d="M196.889,0.719c-16.533-4.431-35.323,12.082-41.966,36.882
			c-6.646,24.799,1.369,48.495,17.902,52.924c16.534,4.43,35.322-12.082,41.966-36.881C221.437,28.844,213.42,5.149,196.889,0.719"
			/>
		<path fill-rule="evenodd" clip-rule="evenodd" fill="#FFFFFF" d="M266.687,61.384c-14.263-6.572-33.816,5.445-43.673,26.84
			c-9.858,21.395-6.287,44.065,7.976,50.637c14.263,6.572,33.817-5.445,43.674-26.839C284.521,90.627,280.95,67.956,266.687,61.384"
			/>
	</g>
	<g>
		<path fill-rule="evenodd" clip-rule="evenodd" fill="#FFFFFF" d="M366.869,86.66l-0.039,35.278
			c3.195-5.56,7.891-10.103,14.055-13.639c5.3-2.928,11.762-4.395,19.388-4.395c13.792,0,25.064,5.712,33.896,17.174
			c8.791,11.461,13.185,26.265,13.185,44.488c0,18.185-4.395,32.988-13.185,44.449c-4.397,5.599-10.373,9.62-17.85,12.102
			c-7.478,2.513-14.879,3.752-22.207,3.752c-14.09,0-27.167-3.68-39.191-11.005c-12.021-7.367-18.034-21.455-18.034-42.31V71.667
			h14.991c4.135,0,7.625,1.462,10.598,4.395C365.404,79.032,366.869,82.524,366.869,86.66 M416.92,164.253
			c0-10.6-2.182-18.828-6.578-24.729c-4.396-6.159-10.409-9.244-17.996-9.244c-8.191,0-14.503,2.933-18.898,8.832
			c-4.397,6.164-6.578,14.542-6.578,25.142c0,12.322,2.066,21.3,6.164,26.898c4.358,6.166,10.52,9.244,18.412,9.244
			c8.189,0,14.5-3.078,18.896-9.244C414.738,184.954,416.92,176.01,416.92,164.253"/>
		<path fill-rule="evenodd" clip-rule="evenodd" fill="#FFFFFF" d="M521.73,166.226c-4.131,2.069-9.843,3.946-17.209,5.715
			c-6.764,1.462-10.143,2.214-10.143,2.214c-5.299,1.465-9.133,3.381-11.502,5.71c-2.064,3.236-3.08,6.464-3.08,9.698
			c0,4.395,1.316,7.927,3.982,10.556c2.635,2.368,6.465,3.534,11.464,3.534c8.225,0,14.728-2.367,19.425-7.068
			c4.695-4.693,7.062-11.119,7.062-19.347V166.226z M528.758,220.261c-6.164,3.231-12.703,5.22-19.613,5.972
			c-6.916,0.713-13.002,1.089-18.299,1.089c-10.598,0-19.842-2.853-27.77-8.601c-7.926-5.715-11.909-15.182-11.909-28.409
			c0-12.361,3.606-21.154,10.823-26.451c7.174-5.3,16.38-8.832,27.541-10.596c1.462,0,3.23-0.189,5.297-0.64
			c2.066-0.451,4.397-0.827,7.066-1.126c12.926-1.73,19.383-5.562,19.383-11.422c0-4.434-2.289-7.292-6.838-8.606
			c-4.547-1.314-8.715-1.991-12.545-1.991c-4.098,0-7.781,0.602-11.014,1.805c-3.232,1.203-5.56,3.456-7.026,6.763h-29.493
			c1.164-9.13,5.259-16.647,12.322-22.546c7.93-6.763,19.24-10.144,33.893-10.144c16.456,0,28.781,2.782,37.014,8.38
			c8.525,5.863,12.773,14.088,12.773,24.649v40.054c0,11.76-2.143,20.926-6.387,27.543
			C539.689,212.557,534.621,217.329,528.758,220.261"/>
		<path fill-rule="evenodd" clip-rule="evenodd" fill="#FFFFFF" d="M554.734,225.071v-56.852c0-11.461,1.692-21.079,5.071-28.857
			c3.384-7.815,8.005-14.052,13.905-18.75c5.6-4.398,12.133-7.629,19.612-9.69c7.478-2.069,15.18-3.086,23.111-3.086h2.214h2.221
			v31.339H610.72c-8.528,0-14.843,2.067-18.937,6.161c-4.095,4.133-6.162,10.559-6.162,19.388v60.347H554.734z"/>
		<path fill-rule="evenodd" clip-rule="evenodd" fill="#FFFFFF" d="M736.206,73.569h15.895c4.093,0,7.626,1.392,10.593,4.172
			c2.931,2.818,4.396,6.236,4.396,10.37v136.96h-30.883V73.569z"/>
		<path fill-rule="evenodd" clip-rule="evenodd" fill="#FFFFFF" d="M788.997,266.365v-24.165h8.381
			c5.862,0,10.483-1.387,13.864-4.167c3.382-2.818,4.055-7.289,1.994-13.455l-40.959-116.743h33.894l23.785,82.777l20.703-72.218
			c1.763-7.027,6.464-10.559,14.089-10.559h21.119l-44.904,133.426c-3.531,9.656-7.929,16.572-13.188,20.669
			c-5.3,3.532-13.979,5.297-26.003,5.297h-3.078h-3.081c-0.865-0.303-1.99-0.526-3.308-0.677
			C790.991,266.44,789.899,266.365,788.997,266.365"/>
		<path fill-rule="evenodd" clip-rule="evenodd" fill="#FFFFFF" d="M656.932,107.911L656.932,107.911v43.174l37.423-43.174h36.975
			l-41.821,44.942l42.268,72.218h-36.97l-21.566-39.644c-4.437-7.924-8.229-11.272-11.459-10.108
			c-3.23,1.167-4.849,2.933-4.849,5.261v16.309v28.181h-30.886V73.569h15.893c4.098,0,7.627,1.462,10.598,4.395
			c2.931,2.935,4.396,6.312,4.396,10.146V107.911z"/>
		<g>
			<path fill="#FFFFFF" d="M1146.786,191.209c-3.74,26.62-21.342,36.08-52.801,36.08c-35.861,0-55.441-12.32-55.441-62.041
				c0-33.22,8.801-59.62,56.762-59.62c40.699,0,52.799,18.92,52.799,69.301h-78.1c1.1,22,6.6,27.28,23.76,27.28
				c11.66,0,18.701-2.2,21.781-11H1146.786z M1117.524,155.569c-1.318-21.12-9.68-24.86-23.76-24.86
				c-17.82,0-22.439,6.16-23.539,24.86H1117.524z"/>
			<path fill="#FFFFFF" d="M1214.625,133.128h-19.801v49.721c0,16.28-1.051,19.302,11.27,19.302c4.619,0,8.531-0.383,8.531-0.383
				v22.66c0,0-6.132,1.674-17.353,1.674c-28.6,0-33.028-11.575-33.028-42.815v-50.16h-15.18v-24.64h15.18V92.025
				c0-6.703,5.434-12.137,12.137-12.137h18.443v28.601h19.801V133.128z"/>
			<path fill="#FFFFFF" d="M1249.024,188.788c1.1,12.54,7.92,15.841,24.42,15.841c16.061,0,21.561-3.08,21.561-11.221
				c0-6.6-3.08-9.02-13.641-11.88l-32.121-7.7c-16.939-4.18-27.279-11.439-27.279-31.899c0-23.32,13.859-36.301,50.82-36.301
				c28.381,0,47.74,7.7,49.279,35.86h-30.58c-1.539-10.34-5.059-13.2-19.139-13.2c-16.061,0-19.801,3.74-19.801,10.34
				c0,5.5,3.08,8.36,12.76,10.78l28.6,6.82c21.121,5.059,31.682,13.2,31.682,32.78c0,27.28-20.68,38.28-52.361,38.28
				c-29.92,0-53.459-9.9-54.779-38.501H1249.024z"/>
			<path fill-rule="evenodd" clip-rule="evenodd" fill="#FFFFFF" d="M1021.639,120.567c-4.397-5.599-10.373-9.62-17.85-12.102
				c-7.479-2.513-14.879-3.752-22.207-3.752c-14.09,0-27.167,3.679-39.191,11.005c-12.021,7.367-18.034,21.455-18.034,42.31v80.868
				v20.018v8.314h14.991c4.135,0,7.625-1.462,10.598-4.395c2.93-2.969,4.394-6.462,4.394-10.598l-0.009-8.117
				c0-0.067,0.009-0.13,0.009-0.197l-0.039-35.278c3.195,5.56,7.891,10.103,14.055,13.639c5.3,2.928,11.762,4.395,19.388,4.395
				c13.792,0,25.063-5.712,33.896-17.174c8.791-11.461,13.186-26.265,13.186-44.488
				C1034.824,146.831,1030.43,132.028,1021.639,120.567z M997.812,191.058c-4.396,6.159-10.409,9.244-17.996,9.244
				c-8.191,0-14.503-2.933-18.898-8.831c-4.398-6.164-6.578-14.542-6.578-25.142c0-12.322,2.066-21.3,6.164-26.898
				c4.358-6.166,10.52-9.244,18.412-9.244c8.189,0,14.5,3.078,18.896,9.244c4.396,6.198,6.578,15.141,6.578,26.898
				C1004.391,176.928,1002.209,185.156,997.812,191.058z"/>
		</g>
	</g>
</g>
</svg>
